<svg width="256" height="256" viewBox="0 0 256 256" fill="none" xmlns="http://www.w3.org/2000/svg">
<rect width="256" height="256" rx="127.706" fill="#FA531E"/>
<path d="M127.629 118.353C128.056 118.353 128.426 118.649 128.5 119.094L128.778 120.707C128.871 121.188 128.537 121.652 128.056 121.726L126.443 122.004C126.443 122.004 126.332 122.004 126.295 122.004C125.868 122.004 125.498 121.707 125.424 121.263L125.146 119.65C125.053 119.168 125.387 118.705 125.868 118.631L127.481 118.353C127.481 118.353 127.592 118.353 127.629 118.353ZM131.281 117.889C130.891 117.889 130.521 118.13 130.372 118.501L129.687 120.188C129.483 120.688 129.724 121.263 130.224 121.467L131.911 122.152C132.041 122.208 132.152 122.226 132.282 122.226C132.671 122.226 133.041 121.985 133.19 121.615L133.876 119.928C134.079 119.428 133.838 118.853 133.338 118.649L131.651 117.963C131.522 117.908 131.41 117.889 131.281 117.889ZM136.619 120.262C136.396 120.262 136.174 120.336 135.97 120.466L134.339 121.652C133.857 122.004 133.746 122.69 134.098 123.172L135.284 124.803C135.507 125.099 135.84 125.248 136.174 125.248C136.396 125.248 136.619 125.173 136.823 125.044L138.454 123.858C138.936 123.505 139.047 122.82 138.695 122.319L137.508 120.688C137.286 120.392 136.952 120.243 136.619 120.243M140.196 125.637C140.196 125.637 140.14 125.637 140.122 125.637L137.898 125.785C137.23 125.822 136.711 126.415 136.767 127.083L136.915 129.307C136.971 129.955 137.49 130.437 138.139 130.437C138.176 130.437 138.194 130.437 138.231 130.437L140.455 130.289C141.123 130.252 141.642 129.659 141.586 128.992L141.438 126.767C141.401 126.119 140.863 125.637 140.214 125.637M138.157 131.624C137.675 131.624 137.212 131.883 136.952 132.346L135.785 134.552C135.432 135.201 135.692 136.035 136.341 136.387L138.528 137.555C138.732 137.666 138.954 137.722 139.158 137.722C139.64 137.722 140.103 137.462 140.344 136.999L141.512 134.793C141.864 134.126 141.605 133.31 140.956 132.977L138.769 131.809C138.565 131.698 138.342 131.642 138.139 131.642M134.802 137.203C134.543 137.203 134.283 137.277 134.042 137.406L131.651 138.797C130.928 139.204 130.688 140.131 131.095 140.854L132.485 143.245C132.763 143.727 133.264 143.986 133.783 143.986C134.042 143.986 134.302 143.912 134.524 143.782L136.915 142.411C137.638 142.003 137.879 141.076 137.471 140.353L136.081 137.963C135.803 137.481 135.303 137.221 134.784 137.221M125.201 140.335C124.312 140.335 123.57 141.039 123.533 141.947L123.422 145.006C123.385 145.932 124.108 146.711 125.034 146.729L128.111 146.841C128.111 146.841 128.148 146.841 128.167 146.841C129.056 146.841 129.798 146.136 129.835 145.228L129.946 142.17C129.983 141.243 129.26 140.465 128.334 140.446L125.275 140.335C125.275 140.335 125.238 140.335 125.22 140.335M117.305 137.722C116.712 137.722 116.119 138 115.767 138.537L113.858 141.373C113.283 142.226 113.506 143.375 114.358 143.949L117.194 145.858C117.509 146.081 117.88 146.173 118.232 146.173C118.825 146.173 119.418 145.895 119.771 145.358L121.68 142.522C122.254 141.669 122.032 140.52 121.179 139.946L118.343 138.037C118.028 137.814 117.658 137.722 117.305 137.722ZM111.282 130.586C111.004 130.586 110.726 130.641 110.447 130.771L106.981 132.309C105.944 132.773 105.48 133.996 105.944 135.034L107.482 138.5C107.816 139.26 108.575 139.723 109.372 139.723C109.651 139.723 109.929 139.668 110.207 139.538L113.673 138C114.711 137.536 115.174 136.313 114.711 135.275L113.172 131.809C112.838 131.049 112.079 130.586 111.282 130.586ZM105.48 119.669C104.368 119.669 103.386 120.503 103.219 121.633L102.626 125.804C102.44 127.064 103.33 128.213 104.572 128.399L108.742 128.992C108.854 128.992 108.965 129.01 109.057 129.01C110.188 129.01 111.17 128.176 111.319 127.046L111.912 122.875C112.097 121.615 111.207 120.466 109.966 120.28L105.795 119.687C105.684 119.687 105.573 119.669 105.48 119.669ZM110.522 106.527C109.799 106.527 109.076 106.843 108.575 107.436L105.573 111.013C104.665 112.088 104.813 113.7 105.888 114.59L109.484 117.593C109.966 118.001 110.54 118.186 111.115 118.186C111.838 118.186 112.56 117.871 113.061 117.278L116.064 113.682C116.972 112.607 116.823 110.994 115.748 110.105L112.171 107.102C111.689 106.694 111.115 106.509 110.54 106.509M122.829 97.0932C122.532 97.0932 122.236 97.1303 121.958 97.2415L117.009 98.854C115.526 99.336 114.711 100.93 115.192 102.413L116.805 107.362C117.194 108.548 118.306 109.308 119.492 109.308C119.789 109.308 120.086 109.271 120.364 109.159L125.312 107.547C126.795 107.065 127.611 105.471 127.129 103.988L125.516 99.0394C125.127 97.8532 124.015 97.0932 122.829 97.0932ZM134.228 93.9794C132.819 93.9794 131.54 94.9432 131.188 96.3704L129.798 101.968C129.372 103.655 130.409 105.36 132.078 105.786L137.675 107.176C137.935 107.232 138.194 107.269 138.435 107.269C139.844 107.269 141.123 106.324 141.475 104.896L142.865 99.2989C143.291 97.6122 142.253 95.907 140.585 95.4992L134.988 94.1091C134.728 94.0535 134.469 94.0165 134.228 94.0165M152.206 99.1135C151.335 99.1135 150.464 99.4286 149.778 100.096L145.163 104.563C143.773 105.897 143.736 108.103 145.071 109.493L149.537 114.108C150.223 114.813 151.131 115.183 152.04 115.183C152.948 115.183 153.782 114.85 154.468 114.201L159.083 109.734C160.473 108.399 160.51 106.194 159.176 104.804L154.709 100.189C154.023 99.4842 153.115 99.1135 152.206 99.1135ZM165.978 114.46C165.718 114.46 165.44 114.497 165.162 114.553L158.175 116.036C156.08 116.481 154.746 118.538 155.191 120.632L156.673 127.602C157.063 129.418 158.675 130.678 160.454 130.678C160.714 130.678 160.992 130.641 161.27 130.586L168.258 129.103C170.352 128.658 171.687 126.601 171.242 124.506L169.759 117.519C169.37 115.702 167.757 114.442 165.978 114.442M162.16 134.274C160.399 134.274 158.749 135.368 158.119 137.11L155.413 144.561C154.597 146.804 155.747 149.269 157.989 150.084L165.44 152.79C165.922 152.976 166.423 153.05 166.923 153.05C168.684 153.05 170.333 151.956 170.964 150.214L173.67 142.763C174.485 140.52 173.336 138.055 171.093 137.24L163.642 134.534C163.161 134.348 162.66 134.274 162.178 134.274M154.116 153.309C153.078 153.309 152.04 153.643 151.168 154.329L144.218 159.759C142.142 161.391 141.771 164.393 143.384 166.469L148.815 173.42C149.76 174.624 151.168 175.255 152.596 175.255C153.634 175.255 154.672 174.921 155.543 174.235L162.493 168.804C164.569 167.173 164.94 164.171 163.309 162.095L157.878 155.163C156.933 153.958 155.524 153.328 154.097 153.328M135.062 166.469C134.876 166.469 134.691 166.469 134.506 166.506L124.775 167.526C121.846 167.841 119.733 170.454 120.03 173.364L121.049 183.095C121.346 185.819 123.644 187.858 126.332 187.858C126.517 187.858 126.703 187.858 126.888 187.821L136.619 186.802C139.547 186.487 141.66 183.873 141.345 180.963L140.326 171.233C140.029 168.489 137.731 166.469 135.043 166.469M99.2895 162.744C97.1024 162.744 94.9895 163.967 93.97 166.061L89.2066 175.829C87.7794 178.758 89.0027 182.316 91.9312 183.744L101.699 188.507C102.533 188.915 103.423 189.1 104.294 189.1C106.481 189.1 108.594 187.877 109.613 185.782L114.377 176.014C115.804 173.086 114.581 169.546 111.652 168.119L101.884 163.355C101.05 162.947 100.161 162.762 99.2895 162.762M77.159 142.874C75.9727 142.874 74.768 143.189 73.6744 143.875L63.4247 150.27C60.3479 152.197 59.4212 156.238 61.3302 159.315L67.7248 169.564C68.9666 171.566 71.1166 172.66 73.3037 172.66C74.49 172.66 75.6947 172.345 76.7883 171.659L87.038 165.264C90.1148 163.337 91.0415 159.296 89.1325 156.219L82.738 145.97C81.4961 143.968 79.3461 142.874 77.159 142.874ZM67.6321 110.994H54.2129C50.1723 110.994 46.9102 114.256 46.9102 118.297V131.716C46.9102 135.757 50.1723 139.019 54.2129 139.019H67.6321C71.6541 139.019 74.9348 135.757 74.9348 131.716V118.297C74.9348 114.275 71.6727 110.994 67.6321 110.994ZM129.724 133.996C129.724 133.996 129.612 133.996 129.575 133.996L127.963 134.274C127.481 134.367 127.166 134.812 127.24 135.293L127.518 136.906C127.592 137.332 127.963 137.647 128.389 137.647C128.445 137.647 128.482 137.647 128.537 137.647L130.15 137.369C130.632 137.277 130.947 136.832 130.873 136.35L130.595 134.737C130.521 134.311 130.15 133.996 129.724 133.996ZM123.737 133.811C123.348 133.811 122.977 134.052 122.829 134.422L122.143 136.109C121.939 136.609 122.18 137.184 122.699 137.388L124.386 138.055C124.515 138.111 124.627 138.129 124.756 138.129C125.146 138.129 125.516 137.888 125.665 137.518L126.35 135.831C126.554 135.331 126.313 134.756 125.813 134.552L124.126 133.866C123.996 133.811 123.885 133.792 123.755 133.792M119.826 130.752C119.604 130.752 119.381 130.827 119.177 130.956L117.546 132.143C117.046 132.495 116.953 133.181 117.305 133.662L118.492 135.293C118.714 135.59 119.048 135.738 119.381 135.738C119.604 135.738 119.826 135.664 120.03 135.534L121.661 134.348C122.143 133.996 122.254 133.31 121.902 132.81L120.716 131.179C120.493 130.882 120.16 130.734 119.826 130.734M117.88 125.563C117.88 125.563 117.824 125.563 117.787 125.563L115.563 125.711C114.896 125.748 114.377 126.341 114.432 127.008L114.581 129.233C114.618 129.881 115.155 130.363 115.786 130.363C115.804 130.363 115.841 130.363 115.878 130.363L118.102 130.215C118.77 130.178 119.27 129.585 119.233 128.918L119.085 126.693C119.048 126.045 118.51 125.563 117.88 125.563ZM116.842 118.316C116.36 118.316 115.897 118.575 115.637 119.038L114.47 121.226C114.117 121.893 114.377 122.708 115.026 123.061L117.213 124.228C117.417 124.339 117.639 124.376 117.843 124.376C118.325 124.376 118.788 124.117 119.048 123.654L120.215 121.467C120.568 120.799 120.308 119.984 119.659 119.632L117.472 118.464C117.268 118.353 117.046 118.297 116.842 118.297M122.217 112.051C121.958 112.051 121.698 112.125 121.476 112.255L119.085 113.645C118.362 114.053 118.121 114.979 118.529 115.702L119.919 118.093C120.197 118.575 120.697 118.853 121.216 118.853C121.476 118.853 121.735 118.779 121.958 118.649L124.349 117.259C125.071 116.851 125.312 115.925 124.905 115.202L123.515 112.811C123.237 112.329 122.736 112.069 122.217 112.069M127.833 109.159C126.943 109.159 126.202 109.864 126.165 110.772L126.054 113.83C126.017 114.757 126.74 115.517 127.666 115.554L130.725 115.665H130.78C131.67 115.665 132.411 114.961 132.448 114.053L132.56 110.994C132.597 110.068 131.874 109.308 130.947 109.271L127.889 109.159H127.833ZM137.805 109.845C137.212 109.845 136.619 110.123 136.266 110.661L134.357 113.497C133.783 114.349 134.005 115.498 134.858 116.073L137.694 117.982C138.009 118.204 138.379 118.297 138.732 118.297C139.325 118.297 139.918 118.019 140.27 117.482L142.179 114.646C142.754 113.793 142.531 112.644 141.679 112.069L138.843 110.16C138.528 109.938 138.157 109.845 137.805 109.845ZM146.683 116.314C146.405 116.314 146.127 116.369 145.849 116.499L142.383 118.038C141.345 118.501 140.882 119.724 141.345 120.762L142.883 124.228C143.217 124.988 143.977 125.452 144.774 125.452C145.052 125.452 145.33 125.396 145.608 125.266L149.074 123.728C150.112 123.264 150.575 122.041 150.112 121.003L148.574 117.537C148.24 116.777 147.48 116.314 146.683 116.314ZM146.943 127.008C145.812 127.008 144.83 127.843 144.681 128.973L144.088 133.143C143.921 134.404 144.793 135.553 146.034 135.738L150.205 136.331C150.316 136.331 150.427 136.35 150.52 136.35C151.65 136.35 152.633 135.516 152.781 134.385L153.374 130.215C153.559 128.955 152.67 127.805 151.428 127.62L147.258 127.027C147.146 127.027 147.035 127.008 146.943 127.008ZM144.922 137.814C144.199 137.814 143.477 138.129 142.976 138.722L139.973 142.3C139.065 143.375 139.214 144.987 140.289 145.895L143.866 148.898C144.348 149.287 144.922 149.491 145.497 149.491C146.22 149.491 146.943 149.176 147.443 148.583L150.446 144.987C151.354 143.912 151.206 142.318 150.131 141.41L146.553 138.407C146.071 138 145.497 137.814 144.922 137.814ZM136.526 146.729C136.229 146.729 135.933 146.767 135.655 146.878L130.706 148.49C129.223 148.972 128.408 150.566 128.89 152.049L130.502 156.998C130.891 158.184 132.003 158.944 133.19 158.944C133.486 158.944 133.783 158.907 134.061 158.796L139.01 157.183C140.492 156.701 141.308 155.107 140.826 153.624L139.214 148.676C138.824 147.489 137.712 146.729 136.526 146.729ZM117.565 148.768C116.156 148.768 114.877 149.714 114.525 151.159L113.135 156.757C112.709 158.443 113.747 160.149 115.415 160.556L121.012 161.965C121.272 162.021 121.513 162.058 121.772 162.058C123.181 162.058 124.46 161.094 124.831 159.667L126.221 154.069C126.647 152.383 125.609 150.677 123.941 150.27L118.343 148.88C118.084 148.824 117.824 148.787 117.583 148.787M103.923 140.854C103.052 140.854 102.181 141.169 101.495 141.836L96.88 146.303C95.4899 147.638 95.4528 149.843 96.7873 151.233L101.254 155.849C101.94 156.553 102.848 156.924 103.775 156.924C104.702 156.924 105.517 156.59 106.203 155.941L110.818 151.474C112.208 150.14 112.245 147.934 110.911 146.544L106.444 141.929C105.758 141.225 104.85 140.854 103.942 140.854M95.5455 125.322C95.286 125.322 95.008 125.359 94.73 125.414L87.7424 126.897C85.6479 127.342 84.3134 129.399 84.7582 131.494L86.241 138.481C86.6303 140.298 88.2428 141.558 90.0221 141.558C90.2816 141.558 90.5596 141.521 90.8191 141.466L97.8068 139.983C99.9012 139.538 101.236 137.481 100.791 135.386L99.3081 128.399C98.9188 126.582 97.3063 125.322 95.527 125.322M89.1139 102.987C87.3531 102.987 85.7035 104.081 85.0733 105.823L82.3673 113.274C81.5517 115.517 82.7009 117.982 84.9436 118.798L92.3946 121.504C92.8765 121.689 93.3769 121.763 93.8774 121.763C95.6382 121.763 97.2878 120.67 97.918 118.927L100.624 111.476C101.44 109.234 100.29 106.768 98.0477 105.953L90.5967 103.247C90.1148 103.061 89.6144 102.987 89.1325 102.987M103.404 80.7641C102.366 80.7641 101.328 81.0977 100.457 81.7835L93.5252 87.2142C91.4493 88.8452 91.0786 91.8479 92.6911 93.9238L98.1218 100.856C99.0671 102.061 100.476 102.691 101.903 102.691C102.941 102.691 103.979 102.357 104.85 101.671L111.782 96.2406C113.858 94.6096 114.229 91.6069 112.616 89.531L107.185 82.599C106.24 81.3943 104.831 80.7641 103.404 80.7641ZM129.65 68.1604C129.464 68.1604 129.279 68.1604 129.094 68.1975L119.363 69.2169C116.434 69.532 114.321 72.1454 114.618 75.0553L115.637 84.7861C115.915 87.5107 118.232 89.5496 120.92 89.5496C121.105 89.5496 121.29 89.5496 121.476 89.5125L131.206 88.4931C134.135 88.178 136.248 85.5646 135.951 82.6546L134.932 72.9238C134.635 70.1807 132.337 68.1604 129.65 68.1604ZM151.725 66.9C149.537 66.9 147.424 68.1233 146.405 70.2178L141.642 79.9856C140.214 82.9141 141.419 86.4543 144.366 87.9L154.134 92.6634C154.968 93.0712 155.858 93.2565 156.729 93.2565C158.916 93.2565 161.029 92.0332 162.048 89.9388L166.812 80.171C168.239 77.2425 167.016 73.7023 164.087 72.2566L154.319 67.4931C153.485 67.0854 152.596 66.9 151.725 66.9ZM182.678 83.3589C181.491 83.3589 180.287 83.674 179.212 84.3598L168.962 90.7543C165.885 92.682 164.958 96.7225 166.867 99.7993L173.262 110.049C174.504 112.051 176.654 113.144 178.841 113.144C180.027 113.144 181.232 112.829 182.326 112.144L192.575 105.749C195.652 103.821 196.579 99.7808 194.67 96.704L188.275 86.4543C187.033 84.4525 184.883 83.3589 182.696 83.3589M201.787 117H188.368C184.327 117 181.065 120.262 181.065 124.302V137.722C181.065 141.762 184.327 145.024 188.368 145.024H201.787C205.791 145.024 209.034 141.818 209.09 137.833V124.21C209.034 120.225 205.791 117.018 201.787 117.018" fill="white"/>
</svg>
